<svg xmlns="http://www.w3.org/2000/svg" xmlns:xlink="http://www.w3.org/1999/xlink" contentStyleType="text/css" data-diagram-type="DESCRIPTION" height="690.625px" preserveAspectRatio="none" style="width:1819px;height:690px;" version="1.1" viewBox="0 0 1819 690" width="1819.7917px" zoomAndPan="magnify"><title>DYNAMOS - Request Approval Components</title><defs><linearGradient id="gk3urja1rxd950" x1="50%" x2="50%" y1="0%" y2="100%"><stop offset="0%" stop-color="#EDF0F2"/><stop offset="100%" stop-color="#E9ECEF"/></linearGradient><linearGradient id="gk3urja1rxd951" x1="50%" x2="50%" y1="0%" y2="100%"><stop offset="0%" stop-color="#59B6EC"/><stop offset="100%" stop-color="#2FA4E7"/></linearGradient></defs><g><g class="title" data-source-line="3"><rect fill="url(#gk3urja1rxd950)" height="47.168" rx="4.1667" ry="4.1667" style="stroke:#BABDBF;stroke-width:1.0417;" width="528.3691" x="641.0971" y="20.8333"/><text fill="#2FA4E7" font-family="'Verdana'" font-size="20.8333" font-weight="bold" lengthAdjust="spacing" textLength="505.4525" x="652.5555" y="51.6296">DYNAMOS - Request Approval Components</text></g><!--cluster API Layer--><g class="cluster" data-qualified-name="API Layer" data-source-line="7" id="ent0003"><path d="M44.2813,317.4492 L119.6434,317.4492 A6.25,6.25 0 0 1 123.8101,321.6159 L131.1017,348.6667 L200.5313,348.6667 A4.1667,4.1667 0 0 1 204.6979,352.8333 L204.6979,457.0013 A4.1667,4.1667 0 0 1 200.5313,461.168 L44.2813,461.168 A4.1667,4.1667 0 0 1 40.1146,457.0013 L40.1146,321.6159 A4.1667,4.1667 0 0 1 44.2813,317.4492" fill="none" style="stroke:#59B6EC;stroke-width:2.0833;"/><line style="stroke:#59B6EC;stroke-width:2.0833;" x1="40.1146" x2="131.1017" y1="348.6667" y2="348.6667"/><text fill="#2FA4E7" font-family="'Verdana'" font-size="12.5" font-weight="bold" lengthAdjust="spacing" textLength="67.0288" x="49.4896" y="336.3437">API Layer</text></g><!--cluster Core Services--><g class="cluster" data-qualified-name="Core Services" data-source-line="11" id="ent0005"><path d="M804.6979,85.7096 L909.1921,85.7096 A6.25,6.25 0 0 1 913.3588,89.8763 L920.6505,116.9271 L1143.2396,116.9271 A4.1667,4.1667 0 0 1 1147.4063,121.0938 L1147.4063,225.2617 A4.1667,4.1667 0 0 1 1143.2396,229.4284 L804.6979,229.4284 A4.1667,4.1667 0 0 1 800.5313,225.2617 L800.5313,89.8763 A4.1667,4.1667 0 0 1 804.6979,85.7096" fill="none" style="stroke:#59B6EC;stroke-width:2.0833;"/><line style="stroke:#59B6EC;stroke-width:2.0833;" x1="800.5313" x2="920.6505" y1="116.9271" y2="116.9271"/><text fill="#2FA4E7" font-family="'Verdana'" font-size="12.5" font-weight="bold" lengthAdjust="spacing" textLength="96.1609" x="809.9063" y="104.6041">Core Services</text></g><!--cluster Message Broker--><g class="cluster" data-qualified-name="Message Broker" data-source-line="16" id="ent0008"><path d="M361.9896,327.8659 L483.5675,327.8659 A6.25,6.25 0 0 1 487.7342,332.0326 L495.0259,359.0833 L980.7396,359.0833 A4.1667,4.1667 0 0 1 984.9063,363.25 L984.9063,446.5846 A4.1667,4.1667 0 0 1 980.7396,450.7513 L361.9896,450.7513 A4.1667,4.1667 0 0 1 357.8229,446.5846 L357.8229,332.0326 A4.1667,4.1667 0 0 1 361.9896,327.8659" fill="none" style="stroke:#59B6EC;stroke-width:2.0833;"/><line style="stroke:#59B6EC;stroke-width:2.0833;" x1="357.8229" x2="495.0259" y1="359.0833" y2="359.0833"/><text fill="#2FA4E7" font-family="'Verdana'" font-size="12.5" font-weight="bold" lengthAdjust="spacing" textLength="113.2446" x="367.1979" y="346.7603">Message Broker</text></g><!--cluster Data Stores--><g class="cluster" data-qualified-name="Data Stores" data-source-line="23" id="ent0013"><path d="M1032.8229,317.9701 L1124.3777,317.9701 A6.25,6.25 0 0 1 1128.5444,322.1367 L1135.836,349.1875 L1133.8646,349.1875 A4.1667,4.1667 0 0 1 1138.0313,353.3542 L1138.0313,456.4805 A4.1667,4.1667 0 0 1 1133.8646,460.6471 L1032.8229,460.6471 A4.1667,4.1667 0 0 1 1028.6563,456.4805 L1028.6563,322.1367 A4.1667,4.1667 0 0 1 1032.8229,317.9701" fill="none" style="stroke:#59B6EC;stroke-width:2.0833;"/><line style="stroke:#59B6EC;stroke-width:2.0833;" x1="1028.6563" x2="1135.836" y1="349.1875" y2="349.1875"/><text fill="#2FA4E7" font-family="'Verdana'" font-size="12.5" font-weight="bold" lengthAdjust="spacing" textLength="83.2214" x="1038.0313" y="336.8645">Data Stores</text></g><!--cluster Data Providers--><g class="cluster" data-qualified-name="Data Providers" data-source-line="27" id="ent0015"><path d="M540.1146,535.1263 L653.3979,535.1263 A6.25,6.25 0 0 1 657.5645,539.293 L664.8562,566.3438 L993.2396,566.3438 A4.1667,4.1667 0 0 1 997.4063,570.5104 L997.4063,674.6784 A4.1667,4.1667 0 0 1 993.2396,678.8451 L540.1146,678.8451 A4.1667,4.1667 0 0 1 535.9479,674.6784 L535.9479,539.293 A4.1667,4.1667 0 0 1 540.1146,535.1263" fill="none" style="stroke:#59B6EC;stroke-width:2.0833;"/><line style="stroke:#59B6EC;stroke-width:2.0833;" x1="535.9479" x2="664.8562" y1="566.3438" y2="566.3438"/><text fill="#2FA4E7" font-family="'Verdana'" font-size="12.5" font-weight="bold" lengthAdjust="spacing" textLength="104.95" x="545.3229" y="554.0208">Data Providers</text></g><!--entity api--><g class="entity" data-qualified-name="API Layer.api" data-source-line="8" id="ent0004"><rect fill="url(#gk3urja1rxd951)" height="56.2174" rx="4.1667" ry="4.1667" style="stroke:#2FA4E7;stroke-width:1.0417;" width="131.0506" x="56.8854" y="388.2826"/><rect fill="url(#gk3urja1rxd951)" height="10.4167" style="stroke:#2FA4E7;stroke-width:1.0417;" width="15.625" x="167.1027" y="393.4909"/><rect fill="url(#gk3urja1rxd951)" height="2.0833" style="stroke:#2FA4E7;stroke-width:1.0417;" width="4.1667" x="165.0194" y="395.5742"/><rect fill="url(#gk3urja1rxd951)" height="2.0833" style="stroke:#2FA4E7;stroke-width:1.0417;" width="4.1667" x="165.0194" y="399.7409"/><text fill="#FFFFFF" font-family="'Verdana'" font-size="12.5" lengthAdjust="spacing" textLength="78.9673" x="77.7188" y="425.927">API Gateway</text></g><!--entity pe--><g class="entity" data-qualified-name="Core Services.pe" data-source-line="12" id="ent0006"><rect fill="url(#gk3urja1rxd951)" height="56.2174" rx="4.1667" ry="4.1667" style="stroke:#2FA4E7;stroke-width:1.0417;" width="145.1681" x="817.5313" y="156.543"/><rect fill="url(#gk3urja1rxd951)" height="10.4167" style="stroke:#2FA4E7;stroke-width:1.0417;" width="15.625" x="941.866" y="161.7513"/><rect fill="url(#gk3urja1rxd951)" height="2.0833" style="stroke:#2FA4E7;stroke-width:1.0417;" width="4.1667" x="939.7826" y="163.8346"/><rect fill="url(#gk3urja1rxd951)" height="2.0833" style="stroke:#2FA4E7;stroke-width:1.0417;" width="4.1667" x="939.7826" y="168.0013"/><text fill="#FFFFFF" font-family="'Verdana'" font-size="12.5" lengthAdjust="spacing" textLength="93.0847" x="838.3646" y="194.1874">Policy Enforcer</text></g><!--entity orch--><g class="entity" data-qualified-name="Core Services.orch" data-source-line="13" id="ent0007"><rect fill="url(#gk3urja1rxd951)" height="56.2174" rx="4.1667" ry="4.1667" style="stroke:#2FA4E7;stroke-width:1.0417;" width="131.4473" x="999.3958" y="156.543"/><rect fill="url(#gk3urja1rxd951)" height="10.4167" style="stroke:#2FA4E7;stroke-width:1.0417;" width="15.625" x="1110.0098" y="161.7513"/><rect fill="url(#gk3urja1rxd951)" height="2.0833" style="stroke:#2FA4E7;stroke-width:1.0417;" width="4.1667" x="1107.9265" y="163.8346"/><rect fill="url(#gk3urja1rxd951)" height="2.0833" style="stroke:#2FA4E7;stroke-width:1.0417;" width="4.1667" x="1107.9265" y="168.0013"/><text fill="#FFFFFF" font-family="'Verdana'" font-size="12.5" lengthAdjust="spacing" textLength="79.364" x="1020.2292" y="194.1874">Orchestrator</text></g><!--entity q_pe--><g class="entity" data-qualified-name="Message Broker.q_pe" data-source-line="17" id="ent0009"><path d="M380.125,398.6992 L506.3722,398.6992 C511.5805,398.6992 511.5805,416.3913 511.5805,416.3913 C511.5805,416.3913 511.5805,434.0833 506.3722,434.0833 L380.125,434.0833 C374.9167,434.0833 374.9167,416.3913 374.9167,416.3913 C374.9167,416.3913 374.9167,398.6992 380.125,398.6992" fill="url(#gk3urja1rxd951)" style="stroke:#2FA4E7;stroke-width:1.0417;"/><path d="M506.3722,398.6992 C501.1638,398.6992 501.1638,416.3913 501.1638,416.3913 C501.1638,434.0833 506.3722,434.0833 506.3722,434.0833" fill="none" style="stroke:#2FA4E7;stroke-width:1.0417;"/><text fill="#FFFFFF" font-family="'Verdana'" font-size="12.5" lengthAdjust="spacing" textLength="105.4138" x="385.3333" y="420.7187">policyEnforcer-in</text></g><!--entity q_orch--><g class="entity" data-qualified-name="Message Broker.q_orch" data-source-line="18" id="ent0010"><path d="M552.9583,398.6992 L666.8703,398.6992 C672.0786,398.6992 672.0786,416.3913 672.0786,416.3913 C672.0786,416.3913 672.0786,434.0833 666.8703,434.0833 L552.9583,434.0833 C547.75,434.0833 547.75,416.3913 547.75,416.3913 C547.75,416.3913 547.75,398.6992 552.9583,398.6992" fill="url(#gk3urja1rxd951)" style="stroke:#2FA4E7;stroke-width:1.0417;"/><path d="M666.8703,398.6992 C661.6619,398.6992 661.6619,416.3913 661.6619,416.3913 C661.6619,434.0833 666.8703,434.0833 666.8703,434.0833" fill="none" style="stroke:#2FA4E7;stroke-width:1.0417;"/><text fill="#FFFFFF" font-family="'Verdana'" font-size="12.5" lengthAdjust="spacing" textLength="93.0786" x="558.1667" y="420.7187">orchestrator-in</text></g><!--entity q_api--><g class="entity" data-qualified-name="Message Broker.q_api" data-source-line="19" id="ent0011"><path d="M713.4375,398.6992 L827.2213,398.6992 C832.4296,398.6992 832.4296,416.3913 832.4296,416.3913 C832.4296,416.3913 832.4296,434.0833 827.2213,434.0833 L713.4375,434.0833 C708.2292,434.0833 708.2292,416.3913 708.2292,416.3913 C708.2292,416.3913 708.2292,398.6992 713.4375,398.6992" fill="url(#gk3urja1rxd951)" style="stroke:#2FA4E7;stroke-width:1.0417;"/><path d="M827.2213,398.6992 C822.0129,398.6992 822.0129,416.3913 822.0129,416.3913 C822.0129,434.0833 827.2213,434.0833 827.2213,434.0833" fill="none" style="stroke:#2FA4E7;stroke-width:1.0417;"/><text fill="#FFFFFF" font-family="'Verdana'" font-size="12.5" lengthAdjust="spacing" textLength="92.9504" x="718.6458" y="420.7187">api-gateway-in</text></g><!--entity q_agent--><g class="entity" data-qualified-name="Message Broker.q_agent" data-source-line="20" id="ent0012"><path d="M873.8646,398.6992 L962.6178,398.6992 C967.8262,398.6992 967.8262,416.3913 967.8262,416.3913 C967.8262,416.3913 967.8262,434.0833 962.6178,434.0833 L873.8646,434.0833 C868.6563,434.0833 868.6563,416.3913 868.6563,416.3913 C868.6563,416.3913 868.6563,398.6992 873.8646,398.6992" fill="url(#gk3urja1rxd951)" style="stroke:#2FA4E7;stroke-width:1.0417;"/><path d="M962.6178,398.6992 C957.4095,398.6992 957.4095,416.3913 957.4095,416.3913 C957.4095,434.0833 962.6178,434.0833 962.6178,434.0833" fill="none" style="stroke:#2FA4E7;stroke-width:1.0417;"/><text fill="#FFFFFF" font-family="'Verdana'" font-size="12.5" lengthAdjust="spacing" textLength="67.9199" x="879.0729" y="420.7187">{agent}-in</text></g><!--entity etcd--><g class="entity" data-qualified-name="Data Stores.etcd" data-source-line="24" id="ent0014"><path d="M1053.5,399.2201 C1053.5,388.8034 1082.8243,388.8034 1082.8243,388.8034 C1082.8243,388.8034 1112.1487,388.8034 1112.1487,399.2201 L1112.1487,433.5625 C1112.1487,443.9792 1082.8243,443.9792 1082.8243,443.9792 C1082.8243,443.9792 1053.5,443.9792 1053.5,433.5625 L1053.5,399.2201" fill="url(#gk3urja1rxd951)" style="stroke:#2FA4E7;stroke-width:1.0417;"/><path d="M1053.5,399.2201 C1053.5,409.6367 1082.8243,409.6367 1082.8243,409.6367 C1082.8243,409.6367 1112.1487,409.6367 1112.1487,399.2201" fill="none" style="stroke:#2FA4E7;stroke-width:1.0417;"/><text fill="#343A40" font-family="'Verdana'" font-size="12.5" lengthAdjust="spacing" textLength="27.3987" x="1069.125" y="430.6145">etcd</text></g><!--entity agent_vu--><g class="entity" data-qualified-name="Data Providers.agent_vu" data-source-line="28" id="ent0016"><rect fill="url(#gk3urja1rxd951)" height="56.2174" rx="4.1667" ry="4.1667" style="stroke:#2FA4E7;stroke-width:1.0417;" width="110.7564" x="552.4479" y="605.9596"/><rect fill="url(#gk3urja1rxd951)" height="10.4167" style="stroke:#2FA4E7;stroke-width:1.0417;" width="15.625" x="642.371" y="611.168"/><rect fill="url(#gk3urja1rxd951)" height="2.0833" style="stroke:#2FA4E7;stroke-width:1.0417;" width="4.1667" x="640.2877" y="613.2513"/><rect fill="url(#gk3urja1rxd951)" height="2.0833" style="stroke:#2FA4E7;stroke-width:1.0417;" width="4.1667" x="640.2877" y="617.418"/><text fill="#FFFFFF" font-family="'Verdana'" font-size="12.5" lengthAdjust="spacing" textLength="58.6731" x="573.2813" y="643.6041">Agent VU</text></g><!--entity agent_uva--><g class="entity" data-qualified-name="Data Providers.agent_uva" data-source-line="29" id="ent0017"><rect fill="url(#gk3urja1rxd951)" height="56.2174" rx="4.1667" ry="4.1667" style="stroke:#2FA4E7;stroke-width:1.0417;" width="119.3075" x="699.2188" y="605.9596"/><rect fill="url(#gk3urja1rxd951)" height="10.4167" style="stroke:#2FA4E7;stroke-width:1.0417;" width="15.625" x="797.6929" y="611.168"/><rect fill="url(#gk3urja1rxd951)" height="2.0833" style="stroke:#2FA4E7;stroke-width:1.0417;" width="4.1667" x="795.6095" y="613.2513"/><rect fill="url(#gk3urja1rxd951)" height="2.0833" style="stroke:#2FA4E7;stroke-width:1.0417;" width="4.1667" x="795.6095" y="617.418"/><text fill="#FFFFFF" font-family="'Verdana'" font-size="12.5" lengthAdjust="spacing" textLength="67.2241" x="720.0521" y="643.6041">Agent UVA</text></g><!--entity agent_surf--><g class="entity" data-qualified-name="Data Providers.agent_surf" data-source-line="30" id="ent0018"><rect fill="url(#gk3urja1rxd951)" height="56.2174" rx="4.1667" ry="4.1667" style="stroke:#2FA4E7;stroke-width:1.0417;" width="126.0152" x="855.2396" y="605.9596"/><rect fill="url(#gk3urja1rxd951)" height="10.4167" style="stroke:#2FA4E7;stroke-width:1.0417;" width="15.625" x="960.4215" y="611.168"/><rect fill="url(#gk3urja1rxd951)" height="2.0833" style="stroke:#2FA4E7;stroke-width:1.0417;" width="4.1667" x="958.3381" y="613.2513"/><rect fill="url(#gk3urja1rxd951)" height="2.0833" style="stroke:#2FA4E7;stroke-width:1.0417;" width="4.1667" x="958.3381" y="617.418"/><text fill="#FFFFFF" font-family="'Verdana'" font-size="12.5" lengthAdjust="spacing" textLength="73.9319" x="876.0729" y="643.6041">Agent SURF</text></g><!--entity client--><g class="entity" data-qualified-name="client" data-source-line="5" id="ent0002"><ellipse cx="56.7851" cy="149.7721" fill="url(#gk3urja1rxd951)" rx="8.3333" ry="8.3333" style="stroke:#2FA4E7;stroke-width:1.0417;"/><path d="M56.7851,158.1055 L56.7851,186.2305 M43.2434,166.4388 L70.3267,166.4388 M56.7851,186.2305 L43.2434,201.8555 M56.7851,186.2305 L70.3267,201.8555" fill="none" style="stroke:#2FA4E7;stroke-width:1.0417;"/><text fill="#343A40" font-family="'Verdana'" font-size="12.5" lengthAdjust="spacing" textLength="80.2368" x="16.6667" y="220.7499">Data Analyst</text></g><!--link client to api--><g class="link" data-entity-1="ent0002" data-entity-2="ent0004" data-link-type="dependency" data-source-line="34" id="lnk19"><path d="M49.625,229.3346 C47.5417,251.1576 47.2813,277.7617 53.6563,300.7826 C62.6979,333.418 80.0534,361.0863 96.5117,383.1383" fill="none" id="client-to-api" style="stroke:#2FA4E7;stroke-width:3.125;"/><polygon fill="#2FA4E7" points="100.25,388.1471,97.9818,378.1418,97.1348,383.9731,91.3034,383.1261,100.25,388.1471" style="stroke:#2FA4E7;stroke-width:3.125;"/><text fill="#343A40" font-family="'Verdana'" font-size="12.5" lengthAdjust="spacing" textLength="69.1284" x="100.632" y="278.0103">HTTP POST</text><text fill="#343A40" font-family="'Verdana'" font-size="12.5" lengthAdjust="spacing" textLength="150.5798" x="59.9063" y="292.5611">/api/v1/requestApproval</text></g><!--link api to q_pe--><g class="link" data-entity-1="ent0004" data-entity-2="ent0009" data-link-type="dependency" data-source-line="37" id="lnk20"><path d="M188.1146,416.3971 C242.4688,416.3971 313.1771,416.3971 368.3333,416.3971" fill="none" id="api-to-q_pe" style="stroke:#2FA4E7;stroke-width:3.125;"/><polygon fill="#2FA4E7" points="374.5833,416.3971,365.2083,412.2305,369.375,416.3971,365.2083,420.5638,374.5833,416.3971" style="stroke:#2FA4E7;stroke-width:3.125;"/><text fill="#343A40" font-family="'Verdana'" font-size="12.5" lengthAdjust="spacing" textLength="138.5559" x="212.1563" y="405.0833">SendRequestApproval</text></g><!--link q_api to api--><g class="link" data-entity-1="ent0011" data-entity-2="ent0004" data-link-type="dependency" data-source-line="38" id="lnk21"><path d="M762.4792,398.4076 C750.6667,373.7201 725.8438,330.0326 690.1146,309.1159 C571.8646,239.8971 515.9167,261.4805 382.3021,291.8451 C301.3125,310.2513 221.4075,353.884 171.4804,384.5819" fill="none" id="q_api-to-api" style="stroke:#2FA4E7;stroke-width:3.125;"/><polygon fill="#2FA4E7" points="166.1563,387.8555,176.3248,386.4945,170.593,385.1275,171.9601,379.3957,166.1563,387.8555" style="stroke:#2FA4E7;stroke-width:3.125;"/><text fill="#343A40" font-family="'Verdana'" font-size="12.5" lengthAdjust="spacing" textLength="58.5999" x="441.3139" y="278.0103">Consume</text><text fill="#343A40" font-family="'Verdana'" font-size="12.5" lengthAdjust="spacing" textLength="164.1235" x="388.5521" y="292.5611">requestApprovalResponse</text></g><!--link api to agent_vu--><g class="link" data-entity-1="ent0004" data-entity-2="ent0016" data-link-type="dependency" data-source-line="39" id="lnk22"><path d="M184.3854,444.9596 C279.7188,487.3034 455.1736,565.2244 546.507,605.7973" fill="none" id="api-to-agent_vu" style="stroke:#2FA4E7;stroke-width:3.125;"/><polygon fill="#2FA4E7" points="552.2188,608.3346,545.3426,600.7208,547.4589,606.2202,541.9595,608.3365,552.2188,608.3346" style="stroke:#2FA4E7;stroke-width:3.125;"/><text fill="#343A40" font-family="'Verdana'" font-size="12.5" lengthAdjust="spacing" textLength="69.1284" x="352.4701" y="495.6874">HTTP POST</text><text fill="#343A40" font-family="'Verdana'" font-size="12.5" lengthAdjust="spacing" textLength="89.6729" x="342.1979" y="510.2382">(data request)</text></g><!--link api to agent_uva--><g class="link" data-entity-1="ent0004" data-entity-2="ent0017" data-link-type="dependency" data-source-line="40" id="lnk23"><path d="M187.9583,434.2201 C234.9583,445.6888 299.9375,460.4076 357.8229,469.5013 C502.2708,492.1888 559.0104,447.3867 681.7813,526.793 C711.6354,546.0951 730.8581,575.7727 743.5664,600.3456" fill="none" id="api-to-agent_uva" style="stroke:#2FA4E7;stroke-width:3.125;"/><polygon fill="#2FA4E7" points="746.4375,605.8971,745.8319,595.6558,744.0449,601.2709,738.4299,599.4839,746.4375,605.8971" style="stroke:#2FA4E7;stroke-width:3.125;"/><text fill="#343A40" font-family="'Verdana'" font-size="12.5" lengthAdjust="spacing" textLength="69.1284" x="683.7201" y="495.6874">HTTP POST</text><text fill="#343A40" font-family="'Verdana'" font-size="12.5" lengthAdjust="spacing" textLength="89.6729" x="673.4479" y="510.2382">(data request)</text></g><!--link q_pe to pe--><g class="link" data-entity-1="ent0009" data-entity-2="ent0006" data-link-type="dependency" data-source-line="43" id="lnk24"><path d="M393.25,398.2096 C322.8125,371.5013 208.2708,317.0742 258.8646,260.1576 C295.4583,219.0013 652.5805,197.059 810.8409,189.257" fill="none" id="q_pe-to-pe" style="stroke:#2FA4E7;stroke-width:3.125;"/><polygon fill="#2FA4E7" points="817.0833,188.9492,807.5145,185.2492,811.8813,189.2057,807.9249,193.5724,817.0833,188.9492" style="stroke:#2FA4E7;stroke-width:3.125;"/><text fill="#343A40" font-family="'Verdana'" font-size="12.5" lengthAdjust="spacing" textLength="58.5999" x="287.5786" y="278.0103">Consume</text><text fill="#343A40" font-family="'Verdana'" font-size="12.5" lengthAdjust="spacing" textLength="103.5278" x="265.1146" y="292.5611">requestApproval</text></g><!--link pe to q_orch--><g class="link" data-entity-1="ent0006" data-entity-2="ent0010" data-link-type="dependency" data-source-line="44" id="lnk25"><path d="M817.1042,196.3451 C746.3229,208.2826 646.125,229.9805 621.3646,260.1576 C588.4688,300.2617 597.0857,361.4062 604.1482,392.5312" fill="none" id="pe-to-q_orch" style="stroke:#2FA4E7;stroke-width:3.125;"/><polygon fill="#2FA4E7" points="605.5313,398.6263,607.5201,388.5617,604.3787,393.5471,599.3934,390.4057,605.5313,398.6263" style="stroke:#2FA4E7;stroke-width:3.125;"/><text fill="#343A40" font-family="'Verdana'" font-size="12.5" lengthAdjust="spacing" textLength="154.7729" x="627.6146" y="285.302">SendValidationResponse</text></g><!--link pe to etcd--><g class="link" data-entity-1="ent0006" data-entity-2="ent0014" data-link-type="dependency" data-source-line="45" id="lnk26"><path d="M847.4271,213.2826 C814.8229,237.6159 779.5729,273.3659 805.7396,300.7826 C819.5,315.1992 966.8438,300.6992 984.9063,309.1159 C1021.0521,325.9701 1046.639,357.6437 1063.4411,383.1958" fill="none" id="pe-to-etcd" style="stroke:#2FA4E7;stroke-width:3.125;"/><polygon fill="#2FA4E7" points="1066.875,388.418,1065.2056,378.2955,1064.0134,384.0662,1058.2427,382.874,1066.875,388.418" style="stroke:#2FA4E7;stroke-width:3.125;"/><text fill="#343A40" font-family="'Verdana'" font-size="12.5" lengthAdjust="spacing" textLength="202.4414" x="811.9896" y="285.302">GET /policyEnforcer/agreements</text></g><!--link q_orch to orch--><g class="link" data-entity-1="ent0010" data-entity-2="ent0007" data-link-type="dependency" data-source-line="48" id="lnk27"><path d="M616.9479,398.2617 C628.2188,373.418 652.9063,328.2305 690.1146,309.1159 C723.1771,292.1367 994.4271,322.6263 1024.4896,300.7826 C1052.0938,280.7409 1060.4043,246.6031 1063.2376,219.4156" fill="none" id="q_orch-to-orch" style="stroke:#2FA4E7;stroke-width:3.125;"/><polygon fill="#2FA4E7" points="1063.8854,213.1992,1058.7694,222.0918,1063.3456,218.3795,1067.0579,222.9556,1063.8854,213.1992" style="stroke:#2FA4E7;stroke-width:3.125;"/><text fill="#343A40" font-family="'Verdana'" font-size="12.5" lengthAdjust="spacing" textLength="58.5999" x="1090.6334" y="278.0103">Consume</text><text fill="#343A40" font-family="'Verdana'" font-size="12.5" lengthAdjust="spacing" textLength="122.1375" x="1058.8646" y="292.5611">validationResponse</text></g><!--link orch to q_api--><g class="link" data-entity-1="ent0007" data-entity-2="ent0011" data-link-type="dependency" data-source-line="49" id="lnk28"><path d="M1131.1979,211.0742 C1180.125,233.3971 1233.0833,267.4492 1200.5313,300.7826 C1186.9479,314.6992 867.8438,300.2409 850.5313,309.1159 C813.3125,328.2096 791.2175,367.7159 779.9467,392.5596" fill="none" id="orch-to-q_api" style="stroke:#2FA4E7;stroke-width:3.125;"/><polygon fill="#2FA4E7" points="777.3646,398.2513,785.0322,391.4352,779.5164,393.5082,777.4433,387.9924,777.3646,398.2513" style="stroke:#2FA4E7;stroke-width:3.125;"/><text fill="#343A40" font-family="'Verdana'" font-size="12.5" lengthAdjust="spacing" textLength="199.1516" x="1216.1563" y="285.302">SendRequestApprovalResponse</text></g><!--link orch to q_agent--><g class="link" data-entity-1="ent0007" data-entity-2="ent0012" data-link-type="dependency" data-source-line="50" id="lnk29"><path d="M1130.9271,185.4284 C1265.4167,186.8659 1551.1667,201.3034 1453.6563,300.7826 C1437.4479,317.3242 1058.5417,300.6367 1036.9896,309.1159 C990.1458,327.5534 953.7104,368.5272 934.3563,393.5376" fill="none" id="orch-to-q_agent" style="stroke:#2FA4E7;stroke-width:3.125;"/><polygon fill="#2FA4E7" points="930.5313,398.4805,939.564,393.6162,933.7188,394.3614,932.9735,388.5162,930.5313,398.4805" style="stroke:#2FA4E7;stroke-width:3.125;"/><text fill="#343A40" font-family="'Verdana'" font-size="12.5" lengthAdjust="spacing" textLength="160.8826" x="1478.6563" y="285.302">SendCompositionRequest</text></g><!--link orch to etcd--><g class="link" data-entity-1="ent0007" data-entity-2="ent0014" data-link-type="dependency" data-source-line="51" id="lnk30"><path d="M1131.25,189.0013 C1280.4688,197.1367 1633.0833,220.3971 1668.2396,260.1576 C1680.1979,273.6888 1679.7188,286.8451 1668.2396,300.7826 C1596.4167,388.0326 1227.8071,409.5235 1118.8175,414.0444" fill="none" id="orch-to-etcd" style="stroke:#2FA4E7;stroke-width:3.125;"/><polygon fill="#2FA4E7" points="1112.5729,414.3034,1122.1125,418.0779,1117.7768,414.0875,1121.7672,409.7518,1112.5729,414.3034" style="stroke:#2FA4E7;stroke-width:3.125;"/><text fill="#343A40" font-family="'Verdana'" font-size="12.5" lengthAdjust="spacing" textLength="118.3655" x="1682.8229" y="278.0103">GET /agents/online</text><text fill="#343A40" font-family="'Verdana'" font-size="12.5" lengthAdjust="spacing" textLength="103.125" x="1690.4432" y="292.5611">GET /archetypes</text></g><!--link q_agent to agent_vu--><g class="link" data-entity-1="ent0012" data-entity-2="ent0016" data-link-type="dependency" data-source-line="54" id="lnk31"><path d="M899.5729,434.5221 C886.5833,445.6992 868.4583,459.9284 850.5313,469.5013 C780.2813,507.0221 744.2708,478.7617 680.7396,526.793 C653.2604,547.5742 635.2959,576.2242 623.0772,600.2034" fill="none" id="q_agent-to-agent_vu" style="stroke:#2FA4E7;stroke-width:3.125;"/><polygon fill="#2FA4E7" points="620.2396,605.7721,628.2084,599.3108,622.6042,601.1315,620.7835,595.5273,620.2396,605.7721" style="stroke:#2FA4E7;stroke-width:3.125;"/></g><!--link q_agent to agent_uva--><g class="link" data-entity-1="ent0012" data-entity-2="ent0017" data-link-type="dependency" data-source-line="55" id="lnk32"><path d="M905.5521,434.4596 C889.5417,455.9596 861.1771,494.0742 836.9896,526.793 C817.2604,553.4909 798.5215,578.984 782.7611,600.4527" fill="none" id="q_agent-to-agent_uva" style="stroke:#2FA4E7;stroke-width:3.125;"/><polygon fill="#2FA4E7" points="779.0625,605.4909,787.9691,600.3993,782.1446,601.2924,781.2516,595.4679,779.0625,605.4909" style="stroke:#2FA4E7;stroke-width:3.125;"/></g><!--link q_agent to agent_surf--><g class="link" data-entity-1="ent0012" data-entity-2="ent0018" data-link-type="dependency" data-source-line="56" id="lnk33"><path d="M918.2396,434.3555 C918.2396,471.4805 918.2396,554.1263 918.2396,599.3451" fill="none" id="q_agent-to-agent_surf" style="stroke:#2FA4E7;stroke-width:3.125;"/><polygon fill="#2FA4E7" points="918.2396,605.5951,922.4063,596.2201,918.2396,600.3867,914.0729,596.2201,918.2396,605.5951" style="stroke:#2FA4E7;stroke-width:3.125;"/></g><!--SRC=[VLHDZzem4BtdLqovR7j0KQyzL4hPZrRg5aG0QQMLLguPmDfWPsqdAxJQ_zuPEu21T7DAx3VptXi_vvFVu1P1ecqg53hBlF8LmlN3d-9-NC8GflZIeFDGrBKrhQXWPBQrqQYzop8XlR4mk1PUGA55jND-0CA1h1G1igmMybci4GR5v1Vy5Zkq0tZBW1wvxnBtxeJ7Lx4BnQ9MsNjIEp8MeKJRAeckftvYAYLtSADNnafce1urdgF6Lcx8XnMaE408l3dXkKVd-EM7DSz7eUI-eSqwaEmvXag77YzF7L67CWd94SEh02cEB0xNqV8HnhuJp1jfqVuzsUVl4yLXxYLn7UUofAM_mj4cUhaCbVnoMJQXqrHBj7qJBPW95lDu7Fpnr3RzeFcYI51DA_fXvNnwc-1SOrSiwGf68IbKe3LAhunsMGmF38VVEGhm3NxEPXEOZClPeyvf9M-_vZQcSXzAxfJ425QLUNKPLtCNFYLgKw9UJi_gmjGJgX49QBRugCy8fkZ8aCD3p_rKJkLzvl53L_lb34p3-H1D7iwYtFa8-hbFiF4_YLa7wl8M_Iv4fOY5vdfmqC4u5GIwkvb1VXhkNAmjqayXtF0hI2_EGL2Wu3OTrq5KUqbumCPXznv4BpWa9yB3JyUfs3TK7f6far3ZSgChfKbDN6C3VbTZi1Fp6EuO6uaawOdsB7AiBrSvnFy0]--></g></svg>